<?xml version="1.0" encoding="UTF-8"?>
<!DOCTYPE svg PUBLIC "-//W3C//DTD SVG 1.1//EN" "http://www.w3.org/Graphics/SVG/1.1/DTD/svg11.dtd">
<!-- Creator: CorelDRAW (Versão de avaliação) -->
<svg xmlns="http://www.w3.org/2000/svg" xml:space="preserve" width="187mm" height="183mm" version="1.1" shape-rendering="geometricPrecision" text-rendering="geometricPrecision" image-rendering="optimizeQuality" fill-rule="evenodd" clip-rule="evenodd"
viewBox="0 0 18700 18300"
 xmlns:xlink="http://www.w3.org/1999/xlink"
 xmlns:xodm="http://www.corel.com/coreldraw/odm/2003">
 <g id="Camada_x0020_1">
  <metadata id="CorelCorpID_0Corel-Layer"/>
  <path id="Fill-1" fill="#E2D3F5" d="M4985.61 16010.04c-2236.29,-752.01 -4176.07,-2620.96 -4573.31,-4941.34 -397.24,-2320.41 1070.07,-4935.95 3375.6,-5438.98 1090.14,-237.95 2266.82,-25.4 3308.29,-424.84 1964.3,-753.32 2631.86,-3301.99 4446.63,-4364.97 1748.45,-1024.02 4145.57,-285.42 5448.21,1264.5 1302.54,1549.94 1682.58,3688.6 1602.77,5709.42 -117.32,2968.94 -1382.21,6170.83 -4082.22,7426.21 -2275.23,1057.83 -7085.69,1357.65 -9525.97,770z"/>
  <g>
   <path id="Fill-259" fill="#E2D3F5" d="M6406.71 676.13c-336.92,116.21 -615.69,403.1 -737.68,753.68 -121.98,350.71 -85.91,757.47 92.11,1080.39 342.63,621.73 1222.38,821.91 1778.16,404.69 555.81,-417.22 663.19,-1358.55 217.13,-1902.68 -446.16,-544.02 -1345.87,-569.11 -1818.67,-50.55l468.95 -285.53zm0 0l0 0 0 0z"/>
  </g>
  <path fill="white" fill-rule="nonzero" d="M11171.46 6227.15c-85.23,177.74 -206.84,313.38 -364.84,406.41 -157.47,93.55 -344.04,140.32 -559.2,140.32 -139.28,0 -268.17,-19.75 -386.66,-59.24 -119.02,-39.5 -225.56,-98.23 -320.14,-175.15 -126.81,-102.38 -221.92,-221.91 -285.32,-358.6 -63.41,-136.68 -95.11,-287.91 -95.11,-454.22 0,-317.02 103.42,-576.36 309.74,-779.04 206.85,-202.17 472.42,-303.51 797.24,-303.51 186.57,0 349.24,37.42 488,111.73 138.25,74.84 258.3,190.22 360.16,346.13l-258.81 190.73c-61.85,-132 -137.73,-231.27 -226.6,-297.27 -89.39,-66 -191.25,-98.74 -306.1,-98.74 -175.67,0 -311.31,70.68 -407.98,212.56 -96.14,141.36 -144.47,341.44 -144.47,600.26 0,238.55 55.08,430.84 165.78,576.88 110.7,146.03 255.7,219.31 435.52,219.31 113.29,0 216.72,-36.9 310.26,-110.18 93.55,-73.79 175.15,-182.41 244.79,-326.89l243.74 158.51z"/>
  <polygon id="_1" fill="white" fill-rule="nonzero" points="12674.98,5557.76 12674.98,4687.77 13245.62,4687.77 13245.62,6723.99 12674.98,6723.99 12674.98,5832.17 12063.8,5832.17 12063.8,6723.99 11493.16,6723.99 11493.16,4687.77 12063.8,4687.77 12063.8,5557.76 "/>
  <path id="_2" fill="white" fill-rule="nonzero" d="M14063.12 5863.35l502.56 0 -263.49 -729.67 -239.07 729.67zm-579.99 860.64l699 -2036.22 550.89 0 745.79 2036.22 -605.98 0 -214.64 -601.82 -683.42 0 -202.17 601.82 -289.47 0z"/>
  <polygon id="_3" fill="white" fill-rule="nonzero" points="15928.35,6723.99 15928.35,4962.18 15385.77,4962.18 15385.77,4687.77 17041.56,4687.77 17041.56,4962.18 16498.99,4962.18 16498.99,6723.99 "/>
  <polygon fill="#6F42BF" fill-rule="nonzero" points="3736.78,9585.37 3698.3,9585.37 2596.1,7161.07 3185.96,7161.07 3736.78,8438.09 4292.56,7161.07 4838.98,7161.07 "/>
  <polygon id="_1_0" fill="#6F42BF" fill-rule="nonzero" points="5033.03,9496.31 5033.03,7161.07 5590.46,7161.07 5590.46,9496.31 "/>
  <path id="_2_1" fill="#6F42BF" fill-rule="nonzero" d="M6767.42 7586.56l-91.8 0 0 646.48 117.64 0c140.73,0 247.93,-28.59 322.14,-85.21 74.21,-56.62 111.04,-138.53 111.04,-244.63 0,-111.59 -35.73,-191.85 -107.74,-241.88 -72.02,-50.02 -189.11,-74.76 -351.28,-74.76zm-632.73 1909.75l0 -2335.24 600.3 0c192.4,0 341.38,12.64 447.48,37.93 106.09,25.29 199.55,67.07 281.46,126.44 86.85,62.12 154.47,139.08 202.3,230.88 47.82,91.81 71.46,188.56 71.46,290.26 0,147.33 -37.38,275.96 -112.14,386.46 -74.77,110.49 -182.51,196.8 -323.24,259.47l712.44 1003.8 -636.58 0 -623.39 -916.94 -79.16 0 0 916.94 -540.93 0z"/>
  <polygon id="_3_2" fill="#6F42BF" fill-rule="nonzero" points="8711.26,9496.31 8711.26,7649.23 7969.13,7649.23 7969.13,7161.07 10007.52,7161.07 10007.52,7649.23 9268.68,7649.23 9268.68,9496.31 "/>
  <path id="_4" fill="#6F42BF" fill-rule="nonzero" d="M10802.97 7161.07l0 1283.06c0,206.15 37.94,360.62 113.8,462.87 75.31,102.8 190.2,153.93 344.13,153.93 147.87,0 261.12,-47.83 338.63,-143.48 78.06,-95.1 117.09,-234.19 117.09,-416.69l0 -1339.69 498.05 0 0 1339.69c0,336.98 -86.3,600.3 -259.47,788.85 -172.61,188.56 -412.84,282.56 -720.14,282.56 -310.6,0 -551.93,-93.45 -724.54,-280.36 -172.06,-186.91 -258.37,-449.67 -258.37,-787.76l0 -1342.98 550.82 0z"/>
  <path id="_5" fill="#6F42BF" fill-rule="nonzero" d="M13176.69 8754.18l613.5 0 -302.9 -731.14 -310.6 731.14zm-874.06 742.13l1191.26 -2407.8 35.18 0 1164.87 2407.8 -583.26 0 -147.88 -339.73 -947.73 0 -151.17 339.73 -561.27 0z"/>
  <polygon id="_6" fill="#6F42BF" fill-rule="nonzero" points="14868.76,9496.31 14868.76,7161.07 15426.18,7161.07 15426.18,8994.96 16336.53,8994.96 16336.53,9496.31 "/>
  <polygon id="Fill-51" fill="#6F42BF" points="13084.13,11053.39 13084.13,13554.61 11432.85,13554.61 11380.26,14503.23 10409.9,13499.69 6774.32,13499.69 7094.48,10868.9 "/>
  <path id="Fill-54" fill="#E6E2EB" d="M12638.41 11783.69c-1606.25,-26.62 -3223.08,-35.81 -4829.34,-7.97 -30.39,0.53 -30.39,38.26 0,38.79 1606.26,27.84 3223.09,18.52 4829.34,-8.12 17.86,-0.13 18.01,-22.42 0,-22.7z"/>
  <path id="Fill-56" fill="#E6E2EB" d="M12638.41 12324.29c-1606.25,-26.49 -3223.08,-35.81 -4829.34,-7.97 -30.39,0.54 -30.39,38.24 0,38.8 1022.28,17.72 2048.86,20.38 3074.23,13.15 585.76,-4.11 1171.14,-11.52 1755.11,-21.15 17.86,-0.25 18.01,-22.55 0,-22.83z"/>
  <path id="Fill-58" fill="#E6E2EB" d="M12435.82 12864.94c-973.83,-25.28 -1963.55,-32.97 -2937.54,-7.96 -30.08,0.79 -30.08,37.98 0,38.77 973.99,24.87 1963.71,17.31 2937.54,-7.97 17.65,-0.41 17.83,-22.43 0,-22.84z"/>
 </g>
</svg>
