<?xml version="1.0" encoding="UTF-8"?>
<!DOCTYPE svg PUBLIC "-//W3C//DTD SVG 1.1//EN" "http://www.w3.org/Graphics/SVG/1.1/DTD/svg11.dtd">
<!-- Creator: CorelDRAW (Versão de avaliação) -->
<svg xmlns="http://www.w3.org/2000/svg" xml:space="preserve" width="187mm" height="183mm" version="1.1" shape-rendering="geometricPrecision" text-rendering="geometricPrecision" image-rendering="optimizeQuality" fill-rule="evenodd" clip-rule="evenodd"
viewBox="0 0 18700 18300"
 xmlns:xlink="http://www.w3.org/1999/xlink"
 xmlns:xodm="http://www.corel.com/coreldraw/odm/2003">
 <g id="Camada_x0020_1">
  <metadata id="CorelCorpID_0Corel-Layer"/>
  <path id="Fill-1" fill="#E2D3F5" d="M4985.61 16010.04c-2236.29,-752.01 -4176.07,-2620.96 -4573.31,-4941.34 -397.24,-2320.41 1070.07,-4935.95 3375.6,-5438.98 1090.14,-237.95 2266.82,-25.4 3308.29,-424.84 1964.3,-753.32 2631.86,-3301.99 4446.63,-4364.97 1748.45,-1024.02 4145.57,-285.42 5448.21,1264.5 1302.54,1549.94 1682.58,3688.6 1602.77,5709.42 -117.32,2968.94 -1382.21,6170.83 -4082.22,7426.21 -2275.23,1057.83 -7085.69,1357.65 -9525.97,770z"/>
  <g>
   <path id="Fill-259" fill="#E2D3F5" d="M6406.71 676.13c-336.92,116.21 -615.69,403.1 -737.68,753.68 -121.98,350.71 -85.91,757.47 92.11,1080.39 342.63,621.73 1222.38,821.91 1778.16,404.69 555.81,-417.22 663.19,-1358.55 217.13,-1902.68 -446.16,-544.02 -1345.87,-569.11 -1818.67,-50.55l468.95 -285.53zm0 0l0 0 0 0z"/>
  </g>
  <polygon fill="white" fill-rule="nonzero" points="9297.39,6723.99 9297.39,4687.77 10600.82,4687.77 10600.82,4962.18 9868.03,4962.18 9868.03,5554.65 10566.52,5554.65 10566.52,5829.05 9868.03,5829.05 9868.03,6723.99 "/>
  <path id="_1" fill="white" fill-rule="nonzero" d="M11176.14 5863.35l502.56 0 -263.49 -729.67 -239.07 729.67zm-579.99 860.64l699 -2036.22 550.89 0 745.79 2036.22 -605.98 0 -214.64 -601.82 -683.42 0 -202.17 601.82 -289.47 0z"/>
  <path id="_2" fill="white" fill-rule="nonzero" d="M14702.36 6227.15c-85.23,177.74 -206.84,313.38 -364.84,406.41 -157.47,93.55 -344.04,140.32 -559.2,140.32 -139.28,0 -268.17,-19.75 -386.66,-59.24 -119.02,-39.5 -225.56,-98.23 -320.14,-175.15 -126.81,-102.38 -221.92,-221.91 -285.32,-358.6 -63.41,-136.68 -95.11,-287.91 -95.11,-454.22 0,-317.02 103.42,-576.36 309.74,-779.04 206.85,-202.17 472.42,-303.51 797.24,-303.51 186.57,0 349.24,37.42 488,111.73 138.25,74.84 258.3,190.22 360.16,346.13l-258.81 190.73c-61.85,-132 -137.73,-231.27 -226.6,-297.27 -89.39,-66 -191.25,-98.74 -306.1,-98.74 -175.67,0 -311.31,70.68 -407.98,212.56 -96.14,141.36 -144.47,341.44 -144.47,600.26 0,238.55 55.08,430.84 165.78,576.88 110.7,146.03 255.7,219.31 435.52,219.31 113.29,0 216.72,-36.9 310.26,-110.18 93.55,-73.79 175.15,-182.41 244.79,-326.89l243.74 158.51zm-1337.73 1145.44l0 -152.8c79.52,18.19 152.28,32.74 218.8,43.14 66.52,10.91 119.53,16.11 159.55,16.11 60.8,0 106.02,-10.4 135.64,-31.18 29.63,-20.79 44.18,-51.97 44.18,-93.55 0,-44.7 -16.11,-77.96 -48.86,-99.27 -32.74,-21.3 -83.67,-31.7 -153.83,-31.7 -20.79,0 -36.38,0 -48.33,0.52 -11.44,0.52 -22.35,1.04 -32.74,1.04l0 -300.91 118.49 0 0 155.91 44.18 0c110.69,0 194.89,23.39 252.57,70.16 57.69,46.26 86.79,114.86 86.79,205.29 0,91.99 -32.74,162.67 -98.74,212.04 -66,49.37 -161.11,73.8 -284.8,73.8 -50.93,0 -109.66,-5.72 -176.7,-17.67 -67.04,-11.44 -139.28,-28.59 -216.2,-50.93z"/>
  <path id="_3" fill="white" fill-rule="nonzero" d="M15348.36 5863.35l502.56 0 -263.49 -729.67 -239.07 729.67zm-579.99 860.64l699 -2036.22 550.89 0 745.79 2036.22 -605.98 0 -214.64 -601.82 -683.42 0 -202.17 601.82 -289.47 0z"/>
  <polygon fill="#6F42BF" fill-rule="nonzero" points="4987.75,9499.61 4987.75,7164.37 5545.17,7164.37 5545.17,8998.26 6455.52,8998.26 6455.52,9499.61 "/>
  <path id="_1_0" fill="#6F42BF" fill-rule="nonzero" d="M7099.79 8331.99c0,202.85 59.37,373.26 178.12,510.15 118.74,136.88 264.96,205.59 438.68,205.59 174.81,0 321.59,-68.16 439.78,-204.49 118.19,-136.89 177.01,-307.3 177.01,-511.25 0,-205.05 -58.82,-376.56 -177.01,-513.44 -118.19,-136.89 -264.97,-205.6 -439.78,-205.6 -173.72,0 -319.94,68.71 -438.68,205.6 -118.75,136.88 -178.12,308.39 -178.12,513.44zm-573.91 0c0,-173.16 29.68,-334.78 89.6,-485.41 59.38,-151.17 147.33,-285.86 263.32,-405.15 109.4,-113.79 236.94,-201.2 382.06,-261.67 144.58,-61.02 296.86,-91.25 455.73,-91.25 158.87,0 311.14,30.78 456.82,91.8 145.68,61.02 274.86,149.53 387.56,264.42 113.79,114.89 200.1,247.38 258.37,398.55 58.82,150.63 87.96,313.9 87.96,488.71 0,146.23 -20.34,283.66 -61.02,412.3 -41.23,128.63 -101.7,246.27 -182.51,352.92 -113.8,151.17 -253.43,268.82 -419.45,352.37 -166.01,84.11 -341.93,125.89 -527.73,125.89 -157.77,0 -308.95,-30.78 -453.53,-91.8 -144.58,-61.02 -272.66,-149.53 -384.26,-264.42 -115.99,-118.74 -203.94,-253.42 -263.32,-403.5 -59.92,-149.53 -89.6,-311.15 -89.6,-483.76z"/>
  <path id="_2_1" fill="#6F42BF" fill-rule="nonzero" d="M11278.26 8203.35l0 1135.19c-156.67,78.61 -309.49,137.43 -457.92,177.01 -148.98,40.13 -293.01,59.92 -432.64,59.92 -355.67,0 -650.32,-117.09 -885.06,-351.82 -234.73,-234.74 -351.82,-531.04 -351.82,-888.36 0,-361.17 118.74,-659.67 356.77,-895.51 238.03,-236.38 538.73,-354.57 903.2,-354.57 137.43,0 268.27,18.69 393.06,56.62 124.24,37.38 244.08,94.56 358.97,170.42l-59.92 584.36c-108.3,-109.4 -216.04,-189.66 -323.24,-240.23 -107.75,-51.13 -220.44,-76.42 -338.63,-76.42 -209.45,0 -382.61,69.82 -520.04,210 -137.44,140.18 -206.15,315.54 -206.15,525.54 0,221.54 66.52,401.85 199,542.03 132.48,140.18 303.45,209.99 512.35,209.99 48.37,0 97.3,-4.39 146.77,-12.64 49.48,-8.79 100.6,-20.89 154.48,-37.38l0 -339.18 -441.98 0 0 -474.97 992.8 0z"/>
  <polygon id="_3_2" fill="#6F42BF" fill-rule="nonzero" points="11747.17,9499.61 11747.17,7164.37 12304.6,7164.37 12304.6,9499.61 "/>
  <polygon id="_4" fill="#6F42BF" fill-rule="nonzero" points="12848.83,9499.61 12848.83,7088.51 12902.15,7088.51 14356.18,8451.28 14356.18,7164.37 14870.72,7164.37 14870.72,9588.67 14822.35,9588.67 13363.37,8225.89 13363.37,9499.61 "/>
  <polygon id="Fill-51" fill="#6F42BF" points="13084.13,11053.39 13084.13,13554.61 11432.85,13554.61 11380.26,14503.23 10409.9,13499.69 6774.32,13499.69 7094.48,10868.9 "/>
  <path id="Fill-54" fill="#E6E2EB" d="M12638.41 11783.69c-1606.25,-26.62 -3223.08,-35.81 -4829.34,-7.97 -30.39,0.53 -30.39,38.26 0,38.79 1606.26,27.84 3223.09,18.52 4829.34,-8.12 17.86,-0.13 18.01,-22.42 0,-22.7z"/>
  <path id="Fill-56" fill="#E6E2EB" d="M12638.41 12324.29c-1606.25,-26.49 -3223.08,-35.81 -4829.34,-7.97 -30.39,0.54 -30.39,38.24 0,38.8 1022.28,17.72 2048.86,20.38 3074.23,13.15 585.76,-4.11 1171.14,-11.52 1755.11,-21.15 17.86,-0.25 18.01,-22.55 0,-22.83z"/>
  <path id="Fill-58" fill="#E6E2EB" d="M12435.82 12864.94c-973.83,-25.28 -1963.55,-32.97 -2937.54,-7.96 -30.08,0.79 -30.08,37.98 0,38.77 973.99,24.87 1963.71,17.31 2937.54,-7.97 17.65,-0.41 17.83,-22.43 0,-22.84z"/>
 </g>
</svg>
